# xmcd
#
# Track frame offsets: 
#        150
#        20305
#        43965
#        63982
#        80065
#        95204
#        113620
#        131472
#        151440
#        169566
#        194015
#        225625
#        245991
#        262175
#        284716
#        311397
#        330230
#
# Disc length: 4688 seconds
#
# Revision: 1
# Processed by: cddbd v1.5.2PL0 Copyright (c) Steve Scherf et al.
# Submitted via: ExactAudioCopyFreeDBPlugin 1.0
#
DISCID=f7124e11
DTITLE=Various Artist - Love Train:  The Sound of Philadelphia [box s
DTITLE=et]
DYEAR=2008
DGENRE=Soul
TTITLE0=The Manhattans - Kiss and Say Goodbye
TTITLE1=Dee Dee Sharp - I'm Not in Love
TTITLE2=Lou Rawls - You'll Never Find Another Love Like Mine
TTITLE3=The Spinners - Rubberband Man
TTITLE4=The Jacksons - Enjoy Yourself
TTITLE5=Jean Carn - Free Love
TTITLE6=Teddy Pendergrass - I Don't Love You Anymore
TTITLE7=Lou Rawls - See You When I Get There
TTITLE8=The O'Jays - Use Ta Be My Girl
TTITLE9=Teddy Pendergrass - Close the Door
TTITLE10=McFadden and Whitehead - Ain't No Stoppin' Us Now
TTITLE11=The Jones Girls - You Gonna Make Me Love Somebody Else
TTITLE12=The Stylistics - Hurry Up This Way Again
TTITLE13=Teddy Pendergrass - Love T.K.O.
TTITLE14=Leon Huff - I Ain't Jivin', I'm Jammin'
TTITLE15=Deniece Williams - It's Gonna Take a Miracle
TTITLE16=Patti LaBelle - If Only You Knew
EXTD=
EXTT0=
EXTT1=
EXTT2=
EXTT3=
EXTT4=
EXTT5=
EXTT6=
EXTT7=
EXTT8=
EXTT9=
EXTT10=
EXTT11=
EXTT12=
EXTT13=
EXTT14=
EXTT15=
EXTT16=
PLAYORDER=
